<svg xmlns="http://www.w3.org/2000/svg" width="55" height="53" viewBox="0 0 55 53">
  <metadata><?xpacket begin="﻿" id="W5M0MpCehiHzreSzNTczkc9d"?>
<x:xmpmeta xmlns:x="adobe:ns:meta/" x:xmptk="Adobe XMP Core 5.6-c138 79.159824, 2016/09/14-01:09:01        ">
   <rdf:RDF xmlns:rdf="http://www.w3.org/1999/02/22-rdf-syntax-ns#">
      <rdf:Description rdf:about=""/>
   </rdf:RDF>
</x:xmpmeta>
                                                                                                    
                                                                                                    
                                                                                                    
                                                                                                    
                                                                                                    
                                                                                                    
                                                                                                    
                                                                                                    
                                                                                                    
                                                                                                    
                                                                                                    
                                                                                                    
                                                                                                    
                                                                                                    
                                                                                                    
                                                                                                    
                                                                                                    
                                                                                                    
                                                                                                    
                                                                                                    
                           
<?xpacket end="w"?></metadata>
<defs>
    <style>
      .cls-1 {
        fill-rule: evenodd;
      }
    </style>
  </defs>
  <path id="Forma_1" data-name="Forma 1" class="cls-1" d="M722.058,1126.01a1,1,0,1,1-1,1A1,1,0,0,1,722.058,1126.01Zm-36.029,0a1,1,0,1,1-1,1A1,1,0,0,1,686.029,1126.01Zm3,2.99a0.99,0.99,0,1,1-1,.99A0.993,0.993,0,0,1,689.031,1129Zm6,0a0.99,0.99,0,1,1-1,.99A0.993,0.993,0,0,1,695.036,1129Zm-3,2.98a1,1,0,1,1-1,.99A0.993,0.993,0,0,1,692.034,1131.98Zm6,0a1,1,0,1,1-1,.99A0.994,0.994,0,0,1,698.039,1131.98Zm3,2.98a1,1,0,1,1-1,1A1,1,0,0,1,701.041,1134.96Zm6,0a1,1,0,1,1-1,1A1,1,0,0,1,707.046,1134.96Zm3-2.98a1,1,0,1,1-1,.99A0.993,0.993,0,0,1,710.048,1131.98Zm-6,5.97a1,1,0,1,1-1,.99A0.993,0.993,0,0,1,704.044,1137.95Zm9.007-8.95a0.99,0.99,0,1,1-1,.99A0.993,0.993,0,0,1,713.051,1129Zm6,0a0.99,0.99,0,1,1-1,.99A0.994,0.994,0,0,1,719.056,1129Zm-3,2.98a1,1,0,1,1-1,.99A0.993,0.993,0,0,1,716.053,1131.98Zm6.544,1.81,9.4-5.34-9.664-5.45,9.664-5.49-27.5-15.52L677,1117.51l9.664,5.49L677,1128.45l9.664,5.49L677,1139.39,704.5,1155l27.5-15.61-9.664-5.45,0.071-.04A1.282,1.282,0,0,0,722.6,1133.79Zm-18.1-29.51,23.455,13.24-7.643,4.34h0l-15.811,8.97-23.456-13.31Zm-16.361,20.17a0.989,0.989,0,0,0,1.585.29l2.264,1.28a0.991,0.991,0,1,0,1.047.99,0.95,0.95,0,0,0-.132-0.47l10.338,5.87a0.957,0.957,0,0,0-.2.56,1,1,0,0,0,2,0,0.871,0.871,0,0,0-.029-0.14l10.06-5.71a0.993,0.993,0,0,0,1.979-.11,0.963,0.963,0,0,0-.406-0.78l2.2-1.25a1.4,1.4,0,0,0,.205.04,1,1,0,0,0,.938-0.69l0.321-.19,7.64,4.32-1.985,1.12a1,1,0,0,0-1.909.41,0.958,0.958,0,0,0,.2.56l-3.948,2.25h0l-6.394,3.63a1,1,0,1,0-.909.51l-2.265,1.29a1.01,1.01,0,0,0-.7-0.28,0.993,0.993,0,0,0-1,.99,1.042,1.042,0,0,0,.046.23l-4.594,2.6-5.522-3.13a0.985,0.985,0,0,0-.939-0.69,0.717,0.717,0,0,0-.206.04l-2.2-1.25a0.979,0.979,0,0,0,.407-0.78,1,1,0,0,0-1-1,0.99,0.99,0,0,0-.978.89L684,1130.13a0.888,0.888,0,0,0-.971-1.13,0.975,0.975,0,0,0-.622.23l-1.36-.77Zm39.815,14.95L704.5,1152.71l-23.454-13.31,7.639-4.31,15.816,8.97,15.815-8.97Z" transform="translate(-677 -1102)"/>
</svg>
