<svg xmlns="http://www.w3.org/2000/svg" width="49" height="59" viewBox="0 0 49 59">
  <metadata><?xpacket begin="﻿" id="W5M0MpCehiHzreSzNTczkc9d"?>
<x:xmpmeta xmlns:x="adobe:ns:meta/" x:xmptk="Adobe XMP Core 5.6-c138 79.159824, 2016/09/14-01:09:01        ">
   <rdf:RDF xmlns:rdf="http://www.w3.org/1999/02/22-rdf-syntax-ns#">
      <rdf:Description rdf:about=""/>
   </rdf:RDF>
</x:xmpmeta>
                                                                                                    
                                                                                                    
                                                                                                    
                                                                                                    
                                                                                                    
                                                                                                    
                                                                                                    
                                                                                                    
                                                                                                    
                                                                                                    
                                                                                                    
                                                                                                    
                                                                                                    
                                                                                                    
                                                                                                    
                                                                                                    
                                                                                                    
                                                                                                    
                                                                                                    
                                                                                                    
                           
<?xpacket end="w"?></metadata>
<defs>
    <style>
      .cls-1 {
        fill-rule: evenodd;
      }
    </style>
  </defs>
  <path class="cls-1" d="M698.863,1219.89a0.921,0.921,0,0,0-.92.93v3.13a0.92,0.92,0,1,0,1.84,0v-3.13A0.921,0.921,0,0,0,698.863,1219.89Zm5.128,4.04a0.927,0.927,0,0,0-.919.93v5.19a0.92,0.92,0,1,0,1.839,0v-5.19A0.927,0.927,0,0,0,703.991,1223.93Zm22,11.27a8.066,8.066,0,0,0-8.018-7.26h-2.866a10.323,10.323,0,0,0-5.782-2.41v-7.74h2.158a12.612,12.612,0,0,0,11.588-17.27,12.294,12.294,0,0,0-10.413-18.62,12.991,12.991,0,0,0-1.971.16,12.1,12.1,0,0,0-18.086,0,13,13,0,0,0-1.972-.16,12.294,12.294,0,0,0-10.413,18.62,12.612,12.612,0,0,0,11.589,17.27,12.879,12.879,0,0,0,2.158-.18v10.87a8.746,8.746,0,0,0-4.708-1.37,8.892,8.892,0,0,0-6.852,3.26,5.651,5.651,0,0,0-5.379,4.73,1.642,1.642,0,0,0,.355,1.33,1.6,1.6,0,0,0,1.222.57h45.8a1.589,1.589,0,0,0,1.188-.53A1.671,1.671,0,0,0,725.991,1235.2Zm-34.186-19.26a10.753,10.753,0,0,1-9.715-15.12,0.952,0.952,0,0,0-.072-0.9,10.43,10.43,0,0,1,8.611-16.16,10.187,10.187,0,0,1,2.135.22,0.912,0.912,0,0,0,.9-0.32,10.281,10.281,0,0,1,15.962,0,0.911,0.911,0,0,0,.9.32,10.177,10.177,0,0,1,2.134-.22,10.43,10.43,0,0,1,8.612,16.16,0.952,0.952,0,0,0-.073.9,10.753,10.753,0,0,1-9.714,15.12,10.4,10.4,0,0,1-4.713-1.11,0.97,0.97,0,0,0-.408-0.1,1.136,1.136,0,0,0-.257.04,15.871,15.871,0,0,1-8.923,0,0.955,0.955,0,0,0-.665.06A10.4,10.4,0,0,1,691.805,1215.94Zm-12.913,19.2a3.807,3.807,0,0,1,3.7-2.91H682.8a0.908,0.908,0,0,0,.789-0.37,7,7,0,0,1,10.586-.87,0.925,0.925,0,0,0,.836.25,4.568,4.568,0,0,1,1.038-.12,4.932,4.932,0,0,1,4.82,4.02H678.892Zm28.593,0h-4.756a6.771,6.771,0,0,0-6.68-5.87H695.8v-12.14q0.612-.21,1.207-0.48a17.631,17.631,0,0,0,9.269,0,11.06,11.06,0,0,0,1.207.48v18.01h0Zm1.84,0v-7.74a8.538,8.538,0,0,1,5.315,2.63,0.923,0.923,0,0,0,1.007.22,6.2,6.2,0,0,1,8.483,4.89h-14.8Z" transform="translate(-677 -1178)"/>
</svg>
